<svg xmlns="http://www.w3.org/2000/svg" viewBox="0 0 251.18 140.616"><defs><clipPath id="logo"><path data-name="Rectangle 55" fill="none" d="M0 0h251.18v140.616H0z"/></clipPath></defs><g data-name="Groupe 114" clip-path="url(#logo)"><path data-name="Tracé 83" d="M233.716 11.9H0v112.886h119.566l-3.642 15.83 15.282-11.1a209.86 209.86 0 0 0 6.24-4.726h102.32V78.876l3.449-17.376a461.92 461.92 0 0 0 6.752-46.742L251.182 0Z" fill="#fff"/><path data-name="Rectangle 49" fill="#5482be" d="M7.271 19.217h225.461v64.008H7.271z"/><path data-name="Rectangle 50" fill="#0058a2" d="M7.269 85.967H232.73v32.003H7.269z"/><path data-name="Tracé 84" d="M118.069 91.083h45.253a236.041 236.041 0 0 1-36.165 32.964c6.556-28.52-9.088-32.964-9.088-32.964" fill="#e40613"/><path data-name="Tracé 85" d="m167.407 71.406 43.132-13.137s-6.835 18.93-22.722 43.342c2.055-29.405-20.41-30.205-20.41-30.205" fill="#e40613"/><path data-name="Tracé 86" d="m206.837 39.048 36.109-24.616a458.09 458.09 0 0 1-6.636 45.947c-9.243-18.908-29.473-21.331-29.473-21.331" fill="#e40613"/><path data-name="Rectangle 51" fill="#fff" d="M14.46 31.614h1.366v17.419H14.46z"/><path data-name="Tracé 87" d="M25.628 47.127h-.043a3.855 3.855 0 0 1-3.514 2.184c-3.145 0-3.644-2.277-3.644-3.345 0-3.97 3.948-4.156 6.81-4.156h.261v-.6c0-2.021-.673-3.043-2.517-3.043a5.591 5.591 0 0 0-3.253.975v-1.419a8.23 8.23 0 0 1 3.253-.814c2.733 0 3.883 1.324 3.883 4.414v5.225a18.13 18.13 0 0 0 .108 2.486h-1.344Zm-.13-4.065h-.39c-2.364 0-5.184.258-5.184 2.857a2.018 2.018 0 0 0 2.3 2.137c3.21 0 3.275-3 3.275-4.273Z" fill="#fff"/><path data-name="Rectangle 52" fill="#fff" d="M33.691 31.614h3.904v17.419h-3.904z"/><path data-name="Tracé 88" d="M40.935 36.932h3.9v12.1h-3.9Zm3.9-1.974h-3.9v-3.066h3.9Z" fill="#fff"/><path data-name="Tracé 89" d="M59.696 47.616c0 4.969-2.255 6.571-6.809 6.571a12.411 12.411 0 0 1-4.316-.766l.194-3.3a7.373 7.373 0 0 0 3.818 1c2.255 0 3.469-1.138 3.469-3.5v-.651h-.043a4.316 4.316 0 0 1-3.795 2.069c-3.1 0-5.033-2.509-5.033-6.087 0-3.6 1.583-6.293 5.1-6.293a4.382 4.382 0 0 1 3.84 2.463h.043v-2.19h3.534Zm-6.267-1.79c1.387 0 2.494-1.253 2.494-3.111a2.583 2.583 0 0 0-2.494-2.857c-1.454 0-2.213 1.369-2.213 3.018 0 1.881 1.043 2.95 2.213 2.95" fill="#fff"/><path data-name="Tracé 90" d="M74.252 49.032h-3.559v-2.23h-.042a4.246 4.246 0 0 1-4.122 2.506c-3.079 0-4.316-2.322-4.316-4.831v-7.546h3.9v5.853c0 2.275.738 3.041 1.8 3.041 1.607 0 2.429-1.183 2.429-3.786v-5.108h3.906Z" fill="#fff"/><path data-name="Tracé 91" d="M80.09 44.197c.216 1.673 1.409 2.323 3.318 2.323a6.933 6.933 0 0 0 3.447-.923v2.95a10.655 10.655 0 0 1-4.142.768c-3.73 0-6.571-2.348-6.571-6.341s2.537-6.317 6.051-6.317c4.185 0 5.7 3.181 5.7 6.78v.76Zm4.293-2.368c0-1.393-.608-2.531-2.17-2.531-1.409 0-2.08 1.138-2.167 2.531Z" fill="#fff"/><path data-name="Tracé 92" d="M102.81 49.034h-1.368v-1.881h-.043a3.515 3.515 0 0 1-3.449 2.159c-3.035 0-4.554-2.694-4.554-6.2 0-3.6 1.3-6.2 4.554-6.2a3.739 3.739 0 0 1 3.449 2.279h.043v-7.576h1.367Zm-4.642-.977c2.429 0 3.275-2.787 3.275-4.946s-.846-4.947-3.275-4.947c-2.6 0-3.275 2.647-3.275 4.947s.673 4.946 3.275 4.946" fill="#fff"/><path data-name="Tracé 93" d="M113.523 48.66a8.549 8.549 0 0 1-3.208.65c-3.667 0-5.033-2.647-5.033-6.2 0-3.624 1.864-6.2 4.664-6.2 3.122 0 4.4 2.7 4.4 5.876v.743h-7.57c0 2.508 1.259 4.528 3.645 4.528a6.74 6.74 0 0 0 3.1-.882Zm-.671-6.386c0-2.069-.781-4.111-2.82-4.111-2.019 0-3.255 2.16-3.255 4.111Z" fill="#fff"/><path data-name="Rectangle 53" fill="#fff" d="M14.46 54.84h1.366v17.417H14.46z"/><path data-name="Rectangle 54" fill="#fff" d="M19.903 56.048h1.366v5.062h-1.366z"/><path data-name="Tracé 94" d="M28.207 67.425c.218 1.673 1.409 2.323 3.32 2.323a6.928 6.928 0 0 0 3.448-.929v2.95a10.7 10.7 0 0 1-4.142.764c-3.732 0-6.573-2.345-6.573-6.338s2.539-6.317 6.053-6.317c4.185 0 5.7 3.181 5.7 6.78v.766Zm4.295-2.368c0-1.393-.608-2.531-2.168-2.531-1.411 0-2.083 1.138-2.168 2.531Z" fill="#fff"/><path data-name="Tracé 95" d="M38.049 60.158h3.559v2.229h.041a4.242 4.242 0 0 1 4.12-2.508c3.079 0 4.316 2.322 4.316 4.829v7.548h-3.9v-5.853c0-2.275-.738-3.041-1.8-3.041-1.607 0-2.429 1.185-2.429 3.784v5.11h-3.907Z" fill="#fff"/><path data-name="Tracé 96" d="M52.302 68.913a9.112 9.112 0 0 0 3.667.836c.8 0 1.582-.14 1.582-.974 0-2.044-5.553-.6-5.553-4.97 0-2.787 2.559-3.924 4.815-3.924a10.133 10.133 0 0 1 3.971.7l-.306 2.9a6.037 6.037 0 0 0-3.035-.813c-.846 0-1.8.163-1.8.838 0 1.88 5.813.394 5.813 4.992 0 3.227-2.71 4.04-5.272 4.04a11.967 11.967 0 0 1-4.1-.58Z" fill="#fff"/><path data-name="Tracé 97" d="M66.772 67.425c.216 1.673 1.409 2.323 3.318 2.323a6.928 6.928 0 0 0 3.448-.929v2.95a10.7 10.7 0 0 1-4.142.764c-3.732 0-6.573-2.345-6.573-6.338s2.537-6.317 6.053-6.317c4.185 0 5.7 3.181 5.7 6.78v.766Zm4.293-2.368c0-1.393-.606-2.531-2.168-2.531-1.411 0-2.083 1.138-2.17 2.531Z" fill="#fff"/><path data-name="Tracé 98" d="M77.072 60.16h3.9v12.1h-3.9Zm3.9-1.976h-3.9v-3.066h3.9Z" fill="#fff"/><path data-name="Tracé 99" d="M95.833 70.84c0 4.969-2.255 6.571-6.81 6.571a12.361 12.361 0 0 1-4.315-.766l.194-3.3a7.369 7.369 0 0 0 3.818 1c2.255 0 3.469-1.138 3.469-3.506v-.651h-.043a4.317 4.317 0 0 1-3.8 2.067c-3.1 0-5.031-2.508-5.031-6.084 0-3.6 1.583-6.293 5.1-6.293a4.383 4.383 0 0 1 3.84 2.461h.042v-2.181h3.536Zm-6.262-1.788c1.387 0 2.494-1.255 2.494-3.111a2.582 2.582 0 0 0-2.494-2.856c-1.454 0-2.213 1.369-2.213 3.018 0 1.881 1.042 2.95 2.213 2.95" fill="#fff"/><path data-name="Tracé 100" d="M98.35 60.158h3.559v2.229h.046a4.242 4.242 0 0 1 4.12-2.508c3.08 0 4.316 2.322 4.316 4.829v7.548h-3.9v-5.853c0-2.275-.738-3.041-1.8-3.041-1.6 0-2.429 1.185-2.429 3.784v5.11h-3.9Z" fill="#fff"/><path data-name="Tracé 101" d="M116.226 67.425c.216 1.673 1.407 2.323 3.318 2.323a6.918 6.918 0 0 0 3.446-.929v2.95a10.681 10.681 0 0 1-4.14.764c-3.732 0-6.573-2.345-6.573-6.338s2.539-6.317 6.053-6.317c4.185 0 5.705 3.181 5.705 6.78v.766Zm4.294-2.368c0-1.393-.606-2.531-2.17-2.531-1.409 0-2.082 1.138-2.168 2.531Z" fill="#fff"/><path data-name="Tracé 102" d="M126.069 60.158h3.559v2.229h.043a4.241 4.241 0 0 1 4.12-2.508 3.542 3.542 0 0 1 3.534 2.322 4.411 4.411 0 0 1 4.012-2.322c3.255 0 3.994 1.974 3.994 5.248v7.129h-3.907v-6.5c0-1.371-.454-2.393-1.558-2.393-1.391 0-2.215 1.185-2.215 3.784v5.11h-3.9v-6.5c0-1.371-.457-2.393-1.563-2.393-1.389 0-2.211 1.185-2.211 3.784v5.11h-3.908Z" fill="#fff"/><path data-name="Tracé 103" d="M151.165 67.425c.219 1.673 1.411 2.323 3.318 2.323a6.94 6.94 0 0 0 3.451-.929v2.95a10.709 10.709 0 0 1-4.144.764c-3.73 0-6.571-2.345-6.571-6.338s2.535-6.317 6.049-6.317c4.187 0 5.705 3.181 5.705 6.78v.766Zm4.3-2.368c0-1.393-.61-2.531-2.17-2.531-1.409 0-2.083 1.138-2.167 2.531Z" fill="#fff"/><path data-name="Tracé 104" d="M161.012 60.158h3.557v2.229h.042a4.244 4.244 0 0 1 4.12-2.508c3.082 0 4.318 2.322 4.318 4.829v7.548h-3.9v-5.853c0-2.275-.738-3.041-1.8-3.041-1.6 0-2.427 1.185-2.427 3.784v5.11h-3.9Z" fill="#fff"/><path data-name="Tracé 105" d="M174.484 60.158h2.3v-2.717l3.836-1.278v3.995h2.735v2.926h-2.735v4.457c0 1.464.327 2.207 1.562 2.207a7.038 7.038 0 0 0 1.2-.163l.13 2.717a17.514 17.514 0 0 1-2.452.233c-3.492 0-4.336-1.649-4.336-4.528v-4.923h-2.235Z" fill="#fff"/><path data-name="Tracé 106" d="M22.421 103.193a3.153 3.153 0 0 1-.042.474 8.12 8.12 0 0 0-.075.8 4.537 4.537 0 0 1-.253.66.764.764 0 0 0-.083.339 1.648 1.648 0 0 1-.4.573 4.274 4.274 0 0 1-1.466 1.354c-.078.047-.218.136-.419.268a3.65 3.65 0 0 1-1.7.517.406.406 0 0 1-.218.055 1.7 1.7 0 0 1-1.523-1.077c-.033-.06-.093-.166-.184-.321l-.016-.036a4.184 4.184 0 0 1-.384-.949 11.766 11.766 0 0 1-.184-.607.979.979 0 0 0-.05-.339v-.535c.012-.108.028-.274.05-.5a3.835 3.835 0 0 1 .052-.429 1.132 1.132 0 0 0 .015-.429 3.329 3.329 0 0 1 .052-.661q.05-.571.45-.661a.619.619 0 0 1 .685.59 5.4 5.4 0 0 1-.035.749.733.733 0 0 1-.289.251 1.649 1.649 0 0 0-.118.713l-.048.484a.439.439 0 0 1 .09.286v.3a3.822 3.822 0 0 0 .781 1.878 2.133 2.133 0 0 0 .483.339 1.78 1.78 0 0 0 .366.037 3.5 3.5 0 0 0 2.271-.939 3.815 3.815 0 0 0 1.354-2.134 3.9 3.9 0 0 1 .066-.538 1.849 1.849 0 0 0 .017-.66q-.1-.7-.266-.733a.618.618 0 0 1-.417-.141c-.09-.023-.164-.12-.226-.287a.821.821 0 0 0-.141-.286 2.4 2.4 0 0 1 .116-.3 1.1 1.1 0 0 1 .583-.357c.279-.047.44.02.485.2a2.073 2.073 0 0 1 .334.553c.133.3.221.489.266.572a9.128 9.128 0 0 1 .018.929" fill="#fff"/><path data-name="Tracé 107" d="m29.395 108.62-.384-.106c-.078-.037-.138-.161-.183-.377a1.151 1.151 0 0 0-.284-.607 6.575 6.575 0 0 1-.233-.445 1.325 1.325 0 0 0-.336-.59 1.425 1.425 0 0 1-.335-.518q-.167-.214-1.068-1.517a19.431 19.431 0 0 1-.651-1.037 8.262 8.262 0 0 0-.467-.715.569.569 0 0 0-.218-.312.5.5 0 0 1-.2-.349.861.861 0 0 1-.15-.161l-.033-.071a.776.776 0 0 0-.253-.321.391.391 0 0 0-.366.178.879.879 0 0 1-.1.09 6.883 6.883 0 0 0-.3 2.448v1.732a3.349 3.349 0 0 1 .066.663 4.436 4.436 0 0 1-.052.678c0 .274-.033.435-.1.482a.53.53 0 0 0-.083.269 1.052 1.052 0 0 1 .033.2 1.273 1.273 0 0 1-.3.213.414.414 0 0 0-.135.09 3.441 3.441 0 0 1-.6-.071.2.2 0 0 1-.017-.088v-.037l-.018-.143q-.032-.214-.083-.982a1.1 1.1 0 0 0-.015-.321.383.383 0 0 1 0-.233q-.017-1.521 0-1.858a3.633 3.633 0 0 1-.068-.876c.018-.189.042-.518.068-.984a.577.577 0 0 1-.068-.447 3.436 3.436 0 0 0 0-.678v.018a3.57 3.57 0 0 0 .319-.517 1.209 1.209 0 0 0 .166.017.592.592 0 0 1 .052.071.332.332 0 0 0 .352.179 1.232 1.232 0 0 0 .267-.608.84.84 0 0 1 .286-.412l.15-.106a.55.55 0 0 0 .219-.178l.066-.09a.1.1 0 0 1 .116-.053 3.142 3.142 0 0 1 1.357 1.59 2.609 2.609 0 0 1 .454.625q.419.733 1.324 2.144a1.836 1.836 0 0 0 .269.339 1.575 1.575 0 0 1 .284.394 3.493 3.493 0 0 0 .369.552 1.325 1.325 0 0 0 .269.43.463.463 0 0 1 .083.143 3.325 3.325 0 0 1 .67.982 1.993 1.993 0 0 1 .419.839 2.321 2.321 0 0 1-.567.447" fill="#fff"/><path data-name="Tracé 108" d="M42.609 108.299a1.916 1.916 0 0 1-.434.3.833.833 0 0 1-.751-.339.4.4 0 0 1-.033-.163.88.88 0 0 1 .043-.2.537.537 0 0 0 .025-.223 6.22 6.22 0 0 0-.135-.41 5.627 5.627 0 0 0-.218-1.143 2.13 2.13 0 0 0-.15-.661 1.907 1.907 0 0 0-.116-.322.764.764 0 0 1-.085-.321 2.556 2.556 0 0 0-.382-.553c-.056-.037-.241-.155-.552-.359a4.166 4.166 0 0 0-.7-.088.353.353 0 0 0-.284.071 1.27 1.27 0 0 1-.3.143c-.123.12-.3.309-.533.572a3.777 3.777 0 0 0-.469.482 5.853 5.853 0 0 0-.3.625l-.133.429c-.012.073-.027.256-.05.553a.865.865 0 0 0 .116.518 1.789 1.789 0 0 0 1.168.733 2.7 2.7 0 0 0 1.369-.071.671.671 0 0 0 .384-.429.706.706 0 0 1 .5-.321 1.2 1.2 0 0 1 .6.447.739.739 0 0 0-.065.3c-.058.095-.151.244-.284.447a7.022 7.022 0 0 1-.952.268 3.725 3.725 0 0 0-.517.2c-.156.012-.362.03-.616.055-.023.01-.08-.007-.168-.055-.2-.035-.5-.083-.886-.143a6.793 6.793 0 0 1-.917-.553 5.016 5.016 0 0 1-.5-1.017 2.654 2.654 0 0 1 .066-1.074 2.413 2.413 0 0 1 .168-.518c.033-.058.088-.155.166-.286a1.121 1.121 0 0 1 .184-.427c.076-.131.161-.269.249-.412a.31.31 0 0 0 .184-.161l.05-.088a.751.751 0 0 1 .282-.251.5.5 0 0 1 .151-.16l.05-.037a.3.3 0 0 0 .116-.143c.111-.06.272-.156.483-.287a.127.127 0 0 0 .168.018.8.8 0 0 0 .3-.141 6.982 6.982 0 0 1 1.234.106 1.007 1.007 0 0 0 .2.071q-.067-.252-.249-.749a2.225 2.225 0 0 0-.851-1.125.6.6 0 0 0-.517-.126l-.435.09c-.145.1-.292.2-.442.3a.831.831 0 0 0-.309.374 8.007 8.007 0 0 1-.3.2l-.249.321c-.078.025-.179-.035-.3-.179a.789.789 0 0 1 .166-.786 2.847 2.847 0 0 1 .718-.641 1.556 1.556 0 0 1 .543-.261 3.6 3.6 0 0 0 .51-.186 2.091 2.091 0 0 1 1.5.59 6.232 6.232 0 0 1 .5.768q.167.394.583 1.2a2.69 2.69 0 0 0 .168.66 2.111 2.111 0 0 1 .05.233 2.258 2.258 0 0 0 .3.7c0 .251.012.346.033.286a1.568 1.568 0 0 0 .133.321.755.755 0 0 1 .1.394c.043.238.128.583.251 1.035a2.789 2.789 0 0 0 .183.733 1.085 1.085 0 0 1 .033.322 1.016 1.016 0 0 0 .166.17.41.41 0 0 1 .151.312.376.376 0 0 0-.168.071" fill="#fff"/><path data-name="Tracé 109" d="M48.049 100.884a1.089 1.089 0 0 1-.2.447 3 3 0 0 0-.267.484c-.078.131-.306.522-.683 1.178-.066.118-.274.553-.618 1.3a.216.216 0 0 1-.1.106 6.756 6.756 0 0 1-.4 1.037 2.84 2.84 0 0 0-.267.607 3.726 3.726 0 0 0-.2 1.055 2.645 2.645 0 0 0 .081.482 2.425 2.425 0 0 1-.384.678.589.589 0 0 1-.483.233.54.54 0 0 1-.517-.233 19.041 19.041 0 0 0-.886-2.036c-.166-.394-.356-.8-.567-1.215-.055-.168-.128-.41-.218-.733a6.992 6.992 0 0 1-.432-1.18c-.035-.166-.09-.268-.168-.3v-.053a1.125 1.125 0 0 0-.216-.57 1.372 1.372 0 0 1-.234-.5 1.937 1.937 0 0 0-.093-.214.649.649 0 0 1-.073-.251 1.677 1.677 0 0 1 .183-.322.76.76 0 0 1 .151-.018.733.733 0 0 1 .366.1c.168.078.256.153.267.224a.311.311 0 0 1-.017.071v.07a1.662 1.662 0 0 0 .2.572 4.684 4.684 0 0 0 .2.555 1.634 1.634 0 0 1 .133.57q.284.643.836 2.127a2.367 2.367 0 0 0 .316.553.686.686 0 0 0 .141.339 1.022 1.022 0 0 1 .161.322l.048.017a.6.6 0 0 0 .16-.035.6.6 0 0 1 .174-.037 8.435 8.435 0 0 1 .367-.839c.078-.189.228-.523.45-1 .045-.108.233-.452.568-1.037a4.74 4.74 0 0 0 .2-.518c.178-.311.434-.779.768-1.411l-.017-.053a.4.4 0 0 1 .066-.171.413.413 0 0 0 .066-.2.975.975 0 0 1 .267-.716 1.578 1.578 0 0 1 .384-.141c.111 0 .216.076.317.231a.944.944 0 0 1 .166.429" fill="#fff"/><path data-name="Tracé 110" d="m55.259 106.727-.017.071a.2.2 0 0 1 .017.09.409.409 0 0 1-.066.213l-.033.055c-.056.095-.111.2-.168.3a.608.608 0 0 1-.334.108 1.14 1.14 0 0 1-.317-.071 7.374 7.374 0 0 0-.967.429 3.068 3.068 0 0 0-.751.249.207.207 0 0 0-.133-.053.709.709 0 0 0-.208.063.373.373 0 0 1-.261.025 2.079 2.079 0 0 1-.784.108 1.338 1.338 0 0 1-.259-.035 1.344 1.344 0 0 0-.258-.037 4.723 4.723 0 0 1-.45-.143 2.846 2.846 0 0 1-.65-.125.887.887 0 0 1-.377-.214 4.842 4.842 0 0 0-.575-.392h-.017c-.045 0-.085-.053-.118-.161a3.541 3.541 0 0 1-.917-1.662c-.01-.251-.028-.673-.05-1.268a4.165 4.165 0 0 1 .135-.806 4.371 4.371 0 0 0 .116-.427c.155-.284.389-.661.7-1.125q.4-.359 1.269-1.019a1.475 1.475 0 0 1 .608-.412 1.967 1.967 0 0 1 .726-.213h.117c.035 0 .068-.028.1-.081a3.669 3.669 0 0 1 .567-.08.675.675 0 0 1 .351.09.815.815 0 0 1 .417.258 1.331 1.331 0 0 0 .351.278c.078.322.156.489.234.5l.033.018a.156.156 0 0 1 .033.108.3.3 0 0 1-.017.09v.071c.033.07.078.178.133.319a1.489 1.489 0 0 1 .017.233 2.073 2.073 0 0 1-.083.484 4.114 4.114 0 0 1-.384.678 3.555 3.555 0 0 1-.6.5 3.916 3.916 0 0 1-.753.41c-.178.085-.457.228-.834.43a4.6 4.6 0 0 1-1.1.339l-.316.07a.274.274 0 0 1-.135.037.831.831 0 0 1-.143-.017.7.7 0 0 0-.141-.02h-.03a.329.329 0 0 1-.2.073.637.637 0 0 1-.151-.027.614.614 0 0 0-.15-.027.082.082 0 0 0-.05.088q.05.252.2.733a2.2 2.2 0 0 0 1.286 1.215 1.677 1.677 0 0 0 .651.233 4.327 4.327 0 0 0 .751.143 1.053 1.053 0 0 0 .266-.035.111.111 0 0 1 .1-.055.427.427 0 0 1 .1.018.452.452 0 0 0 .1.018 1.634 1.634 0 0 0 .359-.063 1.618 1.618 0 0 1 .359-.063.63.63 0 0 0 .5-.16 1.861 1.861 0 0 0 .784-.374 1.691 1.691 0 0 0 .419-.663.646.646 0 0 1 .248-.053.835.835 0 0 1 .385.106l.384.518a.488.488 0 0 1-.017.108m-2.77-5.128c-.023-.07-.09-.111-.2-.125s-.168-.095-.168-.251c0-.081-.083-.123-.249-.123a1.248 1.248 0 0 0-.267.043 1.267 1.267 0 0 1-.266.045.765.765 0 0 0-.452.143c-.211.12-.522.268-.932.447a5.941 5.941 0 0 0-.954.892.539.539 0 0 0-.216.2c-.078.155-.156.314-.234.474a1.1 1.1 0 0 0-.116.474c.145-.023.228-.035.251-.035a.425.425 0 0 1 .216.09.429.429 0 0 0 .218.09h.2a.094.094 0 0 1 .068-.037c.022 0 .043.015.066.045s.045.045.066.045a.353.353 0 0 0 .183-.081.377.377 0 0 1 .184-.08.205.205 0 0 1 .118.035c.311-.118.693-.286 1.15-.5q.718-.481.768-.518a2.475 2.475 0 0 0 .6-.731c-.023-.489-.033-.666-.033-.537" fill="#fff"/><path data-name="Tracé 111" d="m61.449 108.62-.384-.106c-.078-.037-.14-.161-.183-.377a1.163 1.163 0 0 0-.284-.607 7.91 7.91 0 0 1-.236-.445 1.282 1.282 0 0 0-.332-.59 1.434 1.434 0 0 1-.329-.518q-.167-.214-1.068-1.517-.2-.287-.65-1.037a8.315 8.315 0 0 0-.469-.715.566.566 0 0 0-.216-.312.5.5 0 0 1-.2-.349.988.988 0 0 1-.15-.161l-.033-.071a.772.772 0 0 0-.251-.321.4.4 0 0 0-.367.178.839.839 0 0 1-.1.09 6.884 6.884 0 0 0-.3 2.448v1.732a3.349 3.349 0 0 1 .066.663 4.656 4.656 0 0 1-.05.678c0 .274-.035.435-.1.482a.53.53 0 0 0-.083.269 1.218 1.218 0 0 1 .033.2 1.273 1.273 0 0 1-.3.213.4.4 0 0 0-.135.09 3.456 3.456 0 0 1-.6-.071.2.2 0 0 1-.017-.088v-.037l-.017-.143q-.032-.214-.083-.982a1.171 1.171 0 0 0-.017-.321.383.383 0 0 1 0-.233q-.017-1.521 0-1.858a3.633 3.633 0 0 1-.068-.876c.018-.189.042-.518.068-.984a.577.577 0 0 1-.068-.447 3.192 3.192 0 0 0 0-.678v.018a3.57 3.57 0 0 0 .319-.517 1.205 1.205 0 0 0 .168.017.592.592 0 0 1 .051.071.331.331 0 0 0 .351.179 1.216 1.216 0 0 0 .269-.608.834.834 0 0 1 .284-.412l.151-.106a.525.525 0 0 0 .218-.178l.066-.09a.106.106 0 0 1 .118-.053 3.158 3.158 0 0 1 1.357 1.59 2.609 2.609 0 0 1 .454.625q.419.733 1.324 2.144a1.81 1.81 0 0 0 .267.339 1.631 1.631 0 0 1 .286.394 3.493 3.493 0 0 0 .369.552 1.373 1.373 0 0 0 .267.43.405.405 0 0 1 .083.143 3.294 3.294 0 0 1 .671.982 1.993 1.993 0 0 1 .419.839 2.321 2.321 0 0 1-.567.447" fill="#fff"/><path data-name="Tracé 112" d="M62.917 97.383a.275.275 0 0 1 .05.16 1.413 1.413 0 0 1-.116.482.064.064 0 0 1-.066.055.308.308 0 0 1-.191-.035.549.549 0 0 0-.176-.055 1.711 1.711 0 0 1-.417.179 1.365 1.365 0 0 1-.583-.2c0 .048-.012-.053-.033-.3a.352.352 0 0 1 .033-.16.777.777 0 0 1 .241-.455c.15-.163.238-.258.259-.287a.115.115 0 0 1 .1-.045.624.624 0 0 1 .585.268 3.982 3.982 0 0 0 .316.394m.9 10.022a.408.408 0 0 1-.05.241 2.4 2.4 0 0 0-.118.278 2.2 2.2 0 0 1-.567.625c-.189.023-.379-.09-.567-.341a1.843 1.843 0 0 1-.3-.641q-.047-.177-.2-.876v-.125a.989.989 0 0 0-.035-.214 1 1 0 0 1-.035-.216 6.583 6.583 0 0 1-.013-.482v-2c.012-.048.045-.494.1-1.339l-.043-.643c-.011-.168-.022-.279-.025-.339s-.007-.065-.007-.017a.556.556 0 0 1-.025-.179q-.067-.823.339-.858a.918.918 0 0 1 .442.143.6.6 0 0 1 .136.357 1.35 1.35 0 0 1-.042.41 2.16 2.16 0 0 0-.058.376.653.653 0 0 0 .1.3 2.429 2.429 0 0 0-.1.749v.535c-.008.168-.03.412-.066.733a.237.237 0 0 1 .066.161 5.121 5.121 0 0 0 0 .607q.057.681.1.947a1.537 1.537 0 0 0 0 .3 3.332 3.332 0 0 0 .146.733c.118.334.248.5.387.482a.426.426 0 0 1 .161-.16c.022 0 .071.068.153.2a.951.951 0 0 1 .121.241" fill="#fff"/><path data-name="Tracé 113" d="M63.368 101.439h.033a.138.138 0 0 0 .083-.053.343.343 0 0 0-.066-.286l-.05-.071-.083-.608c-.012-.071.111-.173.366-.3.047.012.128.125.251.339v.055c.09.166.206.415.351.751q0 .052.085.623a.772.772 0 0 1 0 .214 1.745 1.745 0 0 0 .332.59l.05-.018c.056-.023.09-.083.1-.178a3.055 3.055 0 0 1 .784-1.7 1.431 1.431 0 0 1 .7-.535.342.342 0 0 1 .216 0h.083a.978.978 0 0 1 .533 0 1.9 1.9 0 0 0 .552.07c.166.06.405.155.716.284a.212.212 0 0 1 .118.055l.033.035c.076 0 .234.118.467.356a.565.565 0 0 0 .3.266 3.253 3.253 0 0 1 .384.8 2.51 2.51 0 0 0 .15.409c0 .106-.088.188-.266.248a.645.645 0 0 1-.384-.08 1.166 1.166 0 0 0-.369-.118l.018-.017q.017-.107-.16-.349a4 4 0 0 0-.658-.633 2.375 2.375 0 0 0-.6-.341 6.747 6.747 0 0 0-.8.055c-.41.083-.8.5-1.168 1.25a5.5 5.5 0 0 0-.116 1 1.423 1.423 0 0 0 .05.412 1.3 1.3 0 0 0-.05.41c0 .095 0 .209.017.339a.178.178 0 0 1 .066.143v.071a1.213 1.213 0 0 0 .033.268c.01.025 0 .053-.033.09l-.033.053a2.515 2.515 0 0 0 .133.786q.032.359.033 1.09a2.409 2.409 0 0 0 .234.7 1.308 1.308 0 0 1-.251.447l-.083.035a1.412 1.412 0 0 1-.434.377l-.1.017a2.788 2.788 0 0 1-.482-.357 5.743 5.743 0 0 1 .083-1.054 1.78 1.78 0 0 0-.033-.572.928.928 0 0 1 0-.5.16.16 0 0 0-.05-.179l-.035-.037q0 .02-.133-1.052a4.627 4.627 0 0 1-.033-.553q-.082-.518-.3-1.539a10.29 10.29 0 0 0-.3-.713q-.082-.269-.282-.786" fill="#fff"/><path data-name="Tracé 114" d="M83.641 104.744c.01.143.017.239.017.286a2.907 2.907 0 0 1-1.077 1.974 3.012 3.012 0 0 1-1.994.974 3.7 3.7 0 0 0-.45.16h-.129a3.851 3.851 0 0 1-.9.108.827.827 0 0 1-.218.106l-.033.143a.318.318 0 0 0 .033.125 2.914 2.914 0 0 0-.015.336c0 .191.01.422.033.695.022.095.06.226.115.392a2.969 2.969 0 0 0 .085.6c.066.3.1.5.116.6-.1.357-.211.535-.334.535-.477-.025-.739-.168-.783-.43-.022-.332-.052-.66-.085-.982l.05-.213-.033-.071a2.8 2.8 0 0 0-.133-.966l-.066-.071a.539.539 0 0 1-.017-.126.205.205 0 0 1 .05-.143c-.033-.095-.164-.188-.392-.276s-.342-.206-.342-.349a.384.384 0 0 1 .334-.41l.05-.2c-.022-.12-.045-.3-.066-.555a.463.463 0 0 0-.033-.266 19.862 19.862 0 0 1-.135-2v-.756a2.39 2.39 0 0 0 .135-.663 2.168 2.168 0 0 1 .336-1.125 4.157 4.157 0 0 0 .168-.464 3.6 3.6 0 0 1 .806-.966c.066-.025.341-.155.821-.394a2.072 2.072 0 0 1 .94-.251c.111.025.272.073.485.145.125.06.307.136.555.233.111.095.267.233.469.409q.1.11.872 1.127c.045.071.106.186.184.339a5.713 5.713 0 0 0 .487 1.394c.022.2.073.5.151.876Zm-1.439 1.393a3.719 3.719 0 0 0 .47-.786 1.146 1.146 0 0 0 .168-.7 6.61 6.61 0 0 1-.168-1.088c-.2-.5-.312-.786-.332-.857a1.4 1.4 0 0 0-.535-.68 3.125 3.125 0 0 0-1.2-.982 1.544 1.544 0 0 0-.952.2q-.434.055-1.085.964a2.028 2.028 0 0 1-.216.555l-.066.053.017.09c-.012.071-.043.2-.09.392-.025.073-.061.2-.11.394a4.417 4.417 0 0 0 0 .768.684.684 0 0 0-.068.3 1.935 1.935 0 0 1 .068.251.3.3 0 0 1-.043.115.325.325 0 0 0-.042.151l.025.233a.427.427 0 0 1 .06.286v.3l.076.608a3.32 3.32 0 0 0 .076-.661l.03-.216a1.658 1.658 0 0 1-.05-.374l.05-.233a.462.462 0 0 1 .367-.16l.233.071a4.291 4.291 0 0 0 .184.874 2.22 2.22 0 0 0-.083.661v.7l.168.035a8.088 8.088 0 0 0 1.592-.392 1.21 1.21 0 0 0 .636-.269 3.27 3.27 0 0 1 .537-.359Z" fill="#fff"/><path data-name="Tracé 115" d="M89.33 108.299a1.916 1.916 0 0 1-.434.3.833.833 0 0 1-.751-.339.4.4 0 0 1-.033-.163 1.062 1.062 0 0 1 .042-.2.517.517 0 0 0 .027-.223 6.905 6.905 0 0 0-.135-.41 5.627 5.627 0 0 0-.218-1.143 2.13 2.13 0 0 0-.15-.661 2.075 2.075 0 0 0-.116-.322.764.764 0 0 1-.085-.321 2.5 2.5 0 0 0-.382-.553c-.056-.037-.241-.155-.552-.359a4.166 4.166 0 0 0-.7-.088.352.352 0 0 0-.284.071 1.335 1.335 0 0 1-.3.143c-.125.12-.3.309-.533.572a3.776 3.776 0 0 0-.469.482 5.854 5.854 0 0 0-.3.625l-.133.429a9.145 9.145 0 0 0-.05.553.865.865 0 0 0 .116.518 1.793 1.793 0 0 0 1.168.733 2.7 2.7 0 0 0 1.369-.071.671.671 0 0 0 .384-.429.706.706 0 0 1 .5-.321 1.194 1.194 0 0 1 .6.447.762.762 0 0 0-.066.3c-.056.095-.15.244-.282.447a7.022 7.022 0 0 1-.952.268 3.725 3.725 0 0 0-.517.2c-.156.012-.362.03-.616.055-.023.01-.08-.007-.168-.055-.2-.035-.5-.083-.886-.143a6.793 6.793 0 0 1-.917-.553 5.016 5.016 0 0 1-.5-1.017 2.654 2.654 0 0 1 .066-1.074 2.468 2.468 0 0 1 .166-.518l.168-.286a1.121 1.121 0 0 1 .184-.427c.076-.131.161-.269.249-.412a.306.306 0 0 0 .184-.161l.048-.088a.766.766 0 0 1 .284-.251.482.482 0 0 1 .151-.16l.05-.037a.3.3 0 0 0 .116-.143c.111-.06.272-.156.483-.287a.127.127 0 0 0 .168.018.8.8 0 0 0 .3-.141 6.982 6.982 0 0 1 1.234.106.968.968 0 0 0 .2.071q-.067-.252-.249-.749a2.234 2.234 0 0 0-.851-1.125.6.6 0 0 0-.517-.126l-.435.09c-.145.1-.292.2-.442.3a.82.82 0 0 0-.309.374 8.007 8.007 0 0 1-.3.2l-.249.321c-.078.025-.179-.035-.3-.179a.789.789 0 0 1 .166-.786 2.847 2.847 0 0 1 .718-.641 1.56 1.56 0 0 1 .542-.261 3.446 3.446 0 0 0 .51-.186 2.085 2.085 0 0 1 1.5.59 6 6 0 0 1 .5.768q.167.394.583 1.2a2.69 2.69 0 0 0 .168.66 2.111 2.111 0 0 1 .05.233 2.258 2.258 0 0 0 .3.7c0 .251.012.346.033.286a1.568 1.568 0 0 0 .133.321.735.735 0 0 1 .1.394q.067.356.253 1.035a2.789 2.789 0 0 0 .183.733 1.085 1.085 0 0 1 .033.322 1.015 1.015 0 0 0 .166.17.408.408 0 0 1 .15.312.378.378 0 0 0-.166.071" fill="#fff"/><path data-name="Tracé 116" d="M88.529 101.439h.033c.023 0 .05-.018.083-.053a.343.343 0 0 0-.066-.286l-.05-.071-.083-.608c-.012-.071.111-.173.367-.3q.067.017.249.339v.055c.09.166.206.415.351.751 0 .035.028.243.083.623a.663.663 0 0 1 0 .214 1.818 1.818 0 0 0 .334.59l.05-.018c.056-.023.09-.083.1-.178a3.043 3.043 0 0 1 .784-1.7 1.428 1.428 0 0 1 .7-.535.343.343 0 0 1 .216 0h.083a.979.979 0 0 1 .533 0 1.9 1.9 0 0 0 .552.07q.249.09.718.284a.212.212 0 0 1 .118.055l.033.035c.076 0 .233.118.467.356a.563.563 0 0 0 .3.266 3.253 3.253 0 0 1 .384.8 2.682 2.682 0 0 0 .15.409c0 .106-.088.188-.266.248a.645.645 0 0 1-.384-.08 1.16 1.16 0 0 0-.367-.118l.017-.017c.012-.071-.042-.188-.158-.349a3.892 3.892 0 0 0-.66-.633 2.349 2.349 0 0 0-.6-.341 6.723 6.723 0 0 0-.8.055q-.616.125-1.168 1.25a5.5 5.5 0 0 0-.116 1 1.423 1.423 0 0 0 .05.412 1.3 1.3 0 0 0-.05.41c0 .095 0 .209.017.339a.178.178 0 0 1 .066.143v.071a1.122 1.122 0 0 0 .033.268c.01.025 0 .053-.033.09l-.033.053a2.479 2.479 0 0 0 .135.786q.032.359.033 1.09a2.448 2.448 0 0 0 .233.7 1.28 1.28 0 0 1-.251.447l-.083.035a1.412 1.412 0 0 1-.434.377l-.1.017a2.728 2.728 0 0 1-.483-.357 5.6 5.6 0 0 1 .083-1.054 1.829 1.829 0 0 0-.033-.572.928.928 0 0 1 0-.5.16.16 0 0 0-.05-.179l-.035-.037q0 .02-.133-1.052a4.629 4.629 0 0 1-.033-.553 33.999 33.999 0 0 0-.3-1.539 9.322 9.322 0 0 0-.3-.713q-.085-.269-.284-.786" fill="#fff"/><path data-name="Tracé 117" d="m104.481 108.175-.05.09a.537.537 0 0 1-.434.3h-.118a.283.283 0 0 1-.251-.106l-.05-.053a.355.355 0 0 0-.2-.055 3.97 3.97 0 0 0-.1-.731 3.06 3.06 0 0 0-.133-1.035c-.156-.56-.244-.889-.266-.984s-.073-.327-.151-.7a1.538 1.538 0 0 0 0-.555 2.673 2.673 0 0 1-.05-.588 3.848 3.848 0 0 1-.133-.929 11.521 11.521 0 0 1-.068-1.484 7.143 7.143 0 0 1 .068-.8c-.012-.475-.012-.749 0-.821a1.087 1.087 0 0 1-.017-.429 1.87 1.87 0 0 0 .033-.455 5.953 5.953 0 0 1 .033-.778 5.7 5.7 0 0 1 .05-.573c.022-.236.033-.42.033-.553a3.525 3.525 0 0 1 .033-.678 2.3 2.3 0 0 0 .017-.517 1.427 1.427 0 0 0 .018-.5 2.555 2.555 0 0 1 .282-.625.481.481 0 0 1 .249-.071.766.766 0 0 1 .317.09.873.873 0 0 1 .052.286 1.129 1.129 0 0 1-.085.412c-.01.155-.048.489-.116 1a7.9 7.9 0 0 0-.083 1.019c-.012.168-.045.7-.1 1.59a3.424 3.424 0 0 1-.018.894 3.93 3.93 0 0 0 0 .892 7.64 7.64 0 0 1 .068.982l.133 1.339c.035.239.078.668.133 1.288a3.083 3.083 0 0 0 .267.892 1.326 1.326 0 0 0 .116.518q0-.055.168 1a1.018 1.018 0 0 1 .2.627c.045.106.118.261.219.462a.491.491 0 0 1-.068.341" fill="#fff"/><path data-name="Tracé 118" d="M108.57 96.459a4.258 4.258 0 0 0-.151.663 5.4 5.4 0 0 0-.153 1.007 6.331 6.331 0 0 0-.271.916c-.023.037-.085.053-.186.053h-.085l-.168-.125a.3.3 0 0 1-.12-.266.56.56 0 0 0 0-.467c.013-.095.048-.279.1-.553a2.953 2.953 0 0 1 .063-.715 4.985 4.985 0 0 0-.166-.68c.133-.474.289-.713.467-.713.4 0 .623.125.666.377a.2.2 0 0 1 .051.143c-.023.264-.04.384-.051.359" fill="#fff"/><path data-name="Tracé 119" d="m117.695 106.727-.017.071a.228.228 0 0 1 .017.09.394.394 0 0 1-.066.213l-.035.055c-.055.095-.111.2-.166.3a.608.608 0 0 1-.334.108 1.131 1.131 0 0 1-.316-.071 7.182 7.182 0 0 0-.969.429 3.1 3.1 0 0 0-.753.249.2.2 0 0 0-.131-.053.7.7 0 0 0-.209.063.364.364 0 0 1-.258.025 2.09 2.09 0 0 1-.784.108 1.323 1.323 0 0 1-.259-.035 1.374 1.374 0 0 0-.259-.037 4.723 4.723 0 0 1-.45-.143 2.853 2.853 0 0 1-.651-.125.893.893 0 0 1-.375-.214 4.712 4.712 0 0 0-.575-.392h-.017c-.045 0-.085-.053-.116-.161a3.527 3.527 0 0 1-.917-1.661c-.013-.251-.028-.673-.051-1.268a4.165 4.165 0 0 1 .135-.806 4.021 4.021 0 0 0 .115-.427c.158-.284.39-.661.7-1.125q.4-.359 1.266-1.019a1.508 1.508 0 0 1 .61-.412 1.965 1.965 0 0 1 .728-.213h.116c.032 0 .066-.028.1-.081a3.7 3.7 0 0 1 .567-.08.671.671 0 0 1 .351.09.815.815 0 0 1 .417.258 1.3 1.3 0 0 0 .351.278c.078.322.156.489.233.5l.035.018a.156.156 0 0 1 .033.108.3.3 0 0 1-.017.09v.071c.033.07.078.178.133.319a1.489 1.489 0 0 1 .017.233 2.167 2.167 0 0 1-.083.484 4.114 4.114 0 0 1-.384.678 3.516 3.516 0 0 1-.6.5 3.875 3.875 0 0 1-.749.41 22.65 22.65 0 0 0-.836.43 4.6 4.6 0 0 1-1.1.339l-.316.07a.274.274 0 0 1-.135.037.8.8 0 0 1-.141-.017.736.736 0 0 0-.141-.02h-.035a.322.322 0 0 1-.2.073.614.614 0 0 1-.15-.027.624.624 0 0 0-.151-.027.082.082 0 0 0-.05.088 7.432 7.432 0 0 0 .2.733 2.2 2.2 0 0 0 1.284 1.215 1.663 1.663 0 0 0 .651.233 4.376 4.376 0 0 0 .749.143 1.047 1.047 0 0 0 .267-.035.112.112 0 0 1 .1-.055.458.458 0 0 1 .1.018.426.426 0 0 0 .1.018 1.618 1.618 0 0 0 .359-.063 1.607 1.607 0 0 1 .362-.059.64.64 0 0 0 .5-.16 1.875 1.875 0 0 0 .783-.374 1.655 1.655 0 0 0 .417-.666.662.662 0 0 1 .251-.053.834.834 0 0 1 .384.106l.384.518a.487.487 0 0 1-.017.108m-2.77-5.128c-.023-.07-.09-.111-.2-.125s-.166-.095-.166-.251c0-.081-.085-.123-.251-.123a1.248 1.248 0 0 0-.268.043 1.284 1.284 0 0 1-.266.045.756.756 0 0 0-.45.143c-.213.12-.523.268-.935.447a5.948 5.948 0 0 0-.952.892.55.55 0 0 0-.216.2c-.078.155-.155.314-.234.474a1.1 1.1 0 0 0-.116.474c.145-.023.229-.035.251-.035a.44.44 0 0 1 .218.09.419.419 0 0 0 .216.09h.2a.088.088 0 0 1 .066-.037c.022 0 .043.015.066.045a.087.087 0 0 0 .066.045.358.358 0 0 0 .183-.081.371.371 0 0 1 .184-.08.2.2 0 0 1 .116.035c.312-.118.7-.286 1.151-.5q.718-.481.769-.518a2.5 2.5 0 0 0 .6-.731c-.023-.489-.033-.666-.033-.537m-.631-2.772a.17.17 0 0 1-.083.071 9.056 9.056 0 0 0-1.135.7 2.89 2.89 0 0 0-.535.394q-.2.232-.384.179a.243.243 0 0 1-.133-.3 1.435 1.435 0 0 1 .116-.377q.551-.481.819-.749a.965.965 0 0 0 .4-.59c.121-.189.216-.286.282-.286a.291.291 0 0 1 .334-.035.654.654 0 0 1 .417.59 1.035 1.035 0 0 1-.1.41" fill="#fff"/><path data-name="Tracé 120" d="M117.661 103.904h-.032l-.035-.07c.078-.085.189-.214.334-.394a.661.661 0 0 0 .218-.233l.035-.071a.536.536 0 0 1 .216-.214l.05.055v-.108a.89.89 0 0 1 .585-.445 1.356 1.356 0 0 1 .407-.518 2.169 2.169 0 0 0 .409-.43 4.5 4.5 0 0 0 .633-.607c.178-.12.366-.238.56-.357a1.485 1.485 0 0 1 .593-.214 1.286 1.286 0 0 0 .216-.2c-.027-.284-.04-.625-.04-1.017a2.426 2.426 0 0 0-.04-.5.094.094 0 0 1-.02-.071q0-.017.035-.035l.033-.055a.1.1 0 0 0 .032-.071.66.66 0 0 0-.05-.206.643.643 0 0 1-.05-.2v-1.75a1.731 1.731 0 0 0-.025-.233 1.791 1.791 0 0 1-.027-.251.418.418 0 0 1 .321-.429 1.027 1.027 0 0 1 .449.125c.145 1.406.226 2.572.251 3.5.01.464.017.892.017 1.285a.248.248 0 0 0 .065.2l.151.071a1.848 1.848 0 0 0 .017.41.406.406 0 0 0-.017.108 3.514 3.514 0 0 0 .184.57.8.8 0 0 1 .017.161.6.6 0 0 1-.027.153.655.655 0 0 0-.023.151.35.35 0 0 0 .05.179v.088c0 .108.01.274.033.5s.032.392.032.5a.153.153 0 0 0 .068.108l.033.053.017.035a.389.389 0 0 1-.042.145.348.348 0 0 0-.042.125c.01.261.05.726.116 1.394q.067.284.151.892a.306.306 0 0 0-.018.09 1.632 1.632 0 0 0 .05.249.527.527 0 0 1 0 .269 1.346 1.346 0 0 1 .178.116.244.244 0 0 1 .106.206 1.68 1.68 0 0 0-.05.3.286.286 0 0 0-.083.108l-.032.035a1.019 1.019 0 0 1-.151.2.938.938 0 0 0-.636.233 6.408 6.408 0 0 1-.532.4 1.078 1.078 0 0 1-.616.206h-.668a7.025 7.025 0 0 1-1.67-.233 3.971 3.971 0 0 1-1.519-.641.775.775 0 0 1-.55-.429c-.012-.013-.033-.018-.068-.018h-.048c-.1 0-.189-.09-.266-.268-.056-.12-.118-.244-.184-.376a1.318 1.318 0 0 0-.091-.42 1.288 1.288 0 0 1-.091-.384 2.056 2.056 0 0 1 .317-.876q.167-.229.5-.661c.023-.023.027-.065.017-.125a.244.244 0 0 1 .1-.035l.033.018h.018a.872.872 0 0 0 .08-.053Zm4.473 1.788a3.617 3.617 0 0 0-.1-.447 3.04 3.04 0 0 0-.025-.321 3.112 3.112 0 0 1-.027-.312 1.69 1.69 0 0 0-.055-.332.733.733 0 0 1-.028-.356q-.03-.805-.028-2.27a.481.481 0 0 0-.022-.143v-.178c0-.06-.05-.09-.151-.09a.8.8 0 0 0-.4.17 1.069 1.069 0 0 1-.369.188 5.737 5.737 0 0 0-1.339 1.108c-.081.07-.2.173-.369.3a7.539 7.539 0 0 1-.788.874 2.588 2.588 0 0 0-.452.59q-.152.252-.52.874a1.075 1.075 0 0 0-.033.251 2 2 0 0 0 .45.8c.068.048.233.181.5.4a6.592 6.592 0 0 0 1 .376.729.729 0 0 0 .375.16 2.4 2.4 0 0 1 .361.088.341.341 0 0 1 .1-.017 1.251 1.251 0 0 1 .233.037.867.867 0 0 0 .249 0 .906.906 0 0 0 .351.071 1.593 1.593 0 0 0 .334-.071.715.715 0 0 1 .367-.037 1.064 1.064 0 0 0 .251-.445 1.268 1.268 0 0 1 .251-.467l.015-.071a1.342 1.342 0 0 0-.1-.357.557.557 0 0 1-.033-.374" fill="#fff"/><path data-name="Tracé 121" d="M131.061 103.193a2.949 2.949 0 0 1-.042.474 8.8 8.8 0 0 0-.075.8 5 5 0 0 1-.253.66.754.754 0 0 0-.081.339 1.648 1.648 0 0 1-.4.573 4.3 4.3 0 0 1-1.468 1.354c-.078.047-.218.136-.419.268a3.65 3.65 0 0 1-1.7.517.4.4 0 0 1-.216.055 1.7 1.7 0 0 1-1.519-1.072c-.032-.06-.095-.166-.183-.321l-.018-.037a4.446 4.446 0 0 1-.384-.949 11.87 11.87 0 0 1-.183-.607 1.025 1.025 0 0 0-.05-.339v-.535c.012-.108.028-.274.05-.5 0-.06.018-.2.05-.429a1.177 1.177 0 0 0 .017-.429 3.09 3.09 0 0 1 .051-.661c.032-.381.183-.6.449-.661a.619.619 0 0 1 .686.59 6.215 6.215 0 0 1-.037.749.725.725 0 0 1-.287.251 1.637 1.637 0 0 0-.12.713l-.047.484a.438.438 0 0 1 .088.286v.3a3.809 3.809 0 0 0 .783 1.878 2.075 2.075 0 0 0 .482.339 1.8 1.8 0 0 0 .367.037 3.5 3.5 0 0 0 2.27-.939 3.81 3.81 0 0 0 1.356-2.134 4.187 4.187 0 0 1 .066-.538 1.929 1.929 0 0 0 .017-.66q-.1-.7-.266-.733a.62.62 0 0 1-.417-.141c-.091-.023-.166-.12-.226-.287a.782.782 0 0 0-.143-.286 2.715 2.715 0 0 1 .116-.3 1.1 1.1 0 0 1 .587-.357c.277-.047.439.02.482.2a1.99 1.99 0 0 1 .334.553c.133.3.224.489.268.572.022.357.027.666.017.929" fill="#fff"/><path data-name="Tracé 122" d="M138.519 107.119a1.288 1.288 0 0 0-.636.286 3.029 3.029 0 0 1-.6.392c-.213.083-.518.226-.92.429a2.139 2.139 0 0 0-.482.09c-.09.023-.6.055-1.535.09a.049.049 0 0 1-.032.018.144.144 0 0 1-.068-.018 3.025 3.025 0 0 1-1.035-.269 1.073 1.073 0 0 1-.425-.151.906.906 0 0 0-.475-.133 4.381 4.381 0 0 1-1.353-1.645 3.531 3.531 0 0 1-.2-.768v-.841q0-.125.025-.384t.025-.384a.112.112 0 0 1 .066-.106h.017l.018-.02c.1-.249.211-.54.334-.874a7.058 7.058 0 0 1 .419-.661 8.547 8.547 0 0 1 1.221-1.286.237.237 0 0 0 .118-.071l.05-.053a6.155 6.155 0 0 1 .939-.484 2.957 2.957 0 0 0 .537-.179 1.556 1.556 0 0 1 .718.359c.056.155.135.362.236.627l.017.018v.033a.154.154 0 0 1-.035.09l-.015.037a.053.053 0 0 1-.017.035v.018c0 .012.017.025.05.035l.017.02a.056.056 0 0 1 .033.053.077.077 0 0 1-.033.071.336.336 0 0 1 .015.106.625.625 0 0 1-.015.135.776.776 0 0 0-.017.133.3.3 0 0 0 .066.179.355.355 0 0 1-.075.2.334.334 0 0 0-.075.161.845.845 0 0 0-.1.384.851.851 0 0 1-.12.4 2.069 2.069 0 0 1-1.033.769.161.161 0 0 1-.065-.126 1.337 1.337 0 0 1 .183-.537.965.965 0 0 0 .135-.608 1.564 1.564 0 0 0 .2-.409.06.06 0 0 0 .032-.053.5.5 0 0 0-.032-.145 1.429 1.429 0 0 0 .1-.482 1.373 1.373 0 0 0-.066-.41 1.363 1.363 0 0 0-.233-.143 2.832 2.832 0 0 0-.7.286 4.274 4.274 0 0 0-1.887 2.125.774.774 0 0 0-.184.445 4.922 4.922 0 0 1-.116.52.634.634 0 0 0-.032.214 2.758 2.758 0 0 0 .633 1.894 4.583 4.583 0 0 0 .648.553 9.633 9.633 0 0 1 .939.392c.244.048.611.095 1.1.143a1.546 1.546 0 0 0 .567-.106.3.3 0 0 0 .1.017c.078-.023.263-.058.553-.106a1.405 1.405 0 0 0 .482-.233h.066a2.017 2.017 0 0 0 .6-.376c.032-.023.042-.071.032-.143v-.071a1.973 1.973 0 0 1 .616-.59.519.519 0 0 0 .168-.043.549.549 0 0 1 .183-.045c.346 0 .585.236.719.715-.012.106-.135.268-.367.482" fill="#fff"/><path data-name="Tracé 123" d="M143.507 108.299a1.936 1.936 0 0 1-.435.3.832.832 0 0 1-.749-.339.4.4 0 0 1-.033-.163 1.062 1.062 0 0 1 .042-.2.485.485 0 0 0 .025-.223 6.82 6.82 0 0 0-.131-.41 6 6 0 0 0-.218-1.143 2.134 2.134 0 0 0-.151-.661 2.2 2.2 0 0 0-.115-.322.74.74 0 0 1-.085-.321 2.6 2.6 0 0 0-.385-.553l-.55-.359a4.166 4.166 0 0 0-.7-.088.349.349 0 0 0-.282.071 1.3 1.3 0 0 1-.3.143c-.121.12-.3.309-.533.572a3.909 3.909 0 0 0-.469.482 5.315 5.315 0 0 0-.3.625l-.135.429c-.01.073-.028.256-.05.553a.865.865 0 0 0 .115.518 1.8 1.8 0 0 0 1.171.733 2.7 2.7 0 0 0 1.368-.073.663.663 0 0 0 .382-.429.7.7 0 0 1 .5-.321 1.187 1.187 0 0 1 .6.447.8.8 0 0 0-.065.3c-.056.095-.15.244-.282.447a7.1 7.1 0 0 1-.952.268 3.644 3.644 0 0 0-.517.2c-.156.012-.364.03-.616.055-.025.01-.081-.007-.169-.055-.2-.035-.5-.083-.884-.143a6.825 6.825 0 0 1-.92-.553 5.127 5.127 0 0 1-.5-1.017 2.654 2.654 0 0 1 .066-1.074 2.414 2.414 0 0 1 .168-.518c.033-.058.088-.155.166-.286a1.112 1.112 0 0 1 .183-.427c.08-.131.161-.269.249-.412a.3.3 0 0 0 .184-.161l.05-.088a.742.742 0 0 1 .284-.251.5.5 0 0 1 .151-.16l.05-.037a.3.3 0 0 0 .116-.143c.113-.06.274-.156.485-.287a.126.126 0 0 0 .168.018.8.8 0 0 0 .3-.141 6.987 6.987 0 0 1 1.236.106.947.947 0 0 0 .2.071 9.052 9.052 0 0 0-.249-.749 2.235 2.235 0 0 0-.851-1.125.6.6 0 0 0-.517-.126l-.435.09c-.145.1-.289.2-.44.3a.814.814 0 0 0-.311.374 8.007 8.007 0 0 1-.3.2l-.253.321q-.115.037-.3-.179a.781.781 0 0 1 .166-.786 2.859 2.859 0 0 1 .719-.641 1.541 1.541 0 0 1 .543-.261 3.362 3.362 0 0 0 .507-.186 2.089 2.089 0 0 1 1.5.59 6.231 6.231 0 0 1 .5.768c.111.263.307.661.585 1.2a2.561 2.561 0 0 0 .166.66 2.114 2.114 0 0 1 .05.233 2.3 2.3 0 0 0 .3.7c0 .251.012.346.032.286a1.566 1.566 0 0 0 .133.321.743.743 0 0 1 .1.394c.042.238.128.583.249 1.035a2.806 2.806 0 0 0 .184.733 1.086 1.086 0 0 1 .033.322.945.945 0 0 0 .166.17.408.408 0 0 1 .15.312.362.362 0 0 0-.166.071" fill="#fff"/><path data-name="Tracé 124" d="m148.327 107.401-.033-.017a3.889 3.889 0 0 1-.148-.5 1.435 1.435 0 0 1 .05-.2.476.476 0 0 1 .382-.125.533.533 0 0 0 .284-.018.183.183 0 0 1 .184.125l.017.037a1.8 1.8 0 0 0 .267.123.446.446 0 0 1 .2.264 1.172 1.172 0 0 0 .164.264v.147c0 .116-.138.319-.415.6a2.263 2.263 0 0 1-.384.125h-.1a2.014 2.014 0 0 0-.316.125.868.868 0 0 1-.349.071h-.035a1.415 1.415 0 0 0-.417.09.535.535 0 0 1-.116-.032l-.1-.043a.141.141 0 0 0-.05-.015h-.1a6.18 6.18 0 0 1-1.485-.64 3.231 3.231 0 0 1-.685-.623 4.167 4.167 0 0 1-.766-1.05 2.934 2.934 0 0 1-.419-1.175 9.533 9.533 0 0 1-.2-1.087 1.154 1.154 0 0 0-.6.163.393.393 0 0 0-.236.088l-.066.073a.608.608 0 0 1-.334.125.787.787 0 0 0-.282-.161 1.158 1.158 0 0 1-.05.233.94.94 0 0 1-.234-.537v-.03a.364.364 0 0 1-.033-.161v-.091l.015-.071a.568.568 0 0 0 .018-.141.886.886 0 0 1 .3-.376.181.181 0 0 1 .148-.09.624.624 0 0 0 .1-.071 5.067 5.067 0 0 0 .751.09 1.848 1.848 0 0 0 .467-.018c.01-.392.033-.922.066-1.589a14.627 14.627 0 0 1 .251-2 .753.753 0 0 1 .05-.331.925.925 0 0 0 .066-.259.416.416 0 0 0-.017-.108q.067-.3.585-2.25a13.62 13.62 0 0 1 .15-1.358c.056-.214.239-.317.552-.3.223 0 .374.155.45.464a.223.223 0 0 0 0 .126l.017.071a.154.154 0 0 1 .017.07c-.055.145-.146.359-.266.645l.017.088c-.113.336-.258.841-.434 1.519a4.509 4.509 0 0 1-.267.947.077.077 0 0 1-.017.055l-.018.07a.5.5 0 0 0-.017.108v.035a.2.2 0 0 1 .035.108.28.28 0 0 1-.068.161 1.444 1.444 0 0 1-.05.464 2.259 2.259 0 0 0-.065.447 2.17 2.17 0 0 1-.06.419 2.308 2.308 0 0 0-.058.42 1 1 0 0 0 .018.179 6.99 6.99 0 0 0-.1 1.374 2.23 2.23 0 0 0 .017.269.878.878 0 0 0 .184.018 4.631 4.631 0 0 0 .533 0h1.017a1.247 1.247 0 0 0 .435-.055 1.487 1.487 0 0 1 .731-.178q.568.017.568.625a3.628 3.628 0 0 0-.032.346.484.484 0 0 1-.385.226h-.116a1.12 1.12 0 0 1-.351.053l-.6-.053h-.284q-.117-.017-1.718 0v.017a2.283 2.283 0 0 0 .118.615 2.32 2.32 0 0 1 .115.613 6.909 6.909 0 0 0 .618 1.226.556.556 0 0 0 .216.279 1.517 1.517 0 0 1 .234.226 2.93 2.93 0 0 0 .5.359.751.751 0 0 0 .367.228 1.664 1.664 0 0 1 .334.135 3.385 3.385 0 0 1 .415.035 3.177 3.177 0 0 0 .385.037.807.807 0 0 0 .465-.053" fill="#fff"/><path data-name="Tracé 125" d="M150.733 97.383a.275.275 0 0 1 .05.16 1.375 1.375 0 0 1-.116.482.065.065 0 0 1-.065.055.313.313 0 0 1-.193-.035.537.537 0 0 0-.176-.055 1.682 1.682 0 0 1-.417.179 1.364 1.364 0 0 1-.585-.2c0 .048-.012-.053-.033-.3a.375.375 0 0 1 .033-.16.777.777 0 0 1 .241-.455c.151-.163.238-.258.259-.287a.121.121 0 0 1 .1-.045.621.621 0 0 1 .583.268 4.316 4.316 0 0 0 .316.394m.9 10.022a.421.421 0 0 1-.05.241 2.14 2.14 0 0 0-.118.278 2.221 2.221 0 0 1-.567.625c-.189.023-.379-.09-.567-.341a1.839 1.839 0 0 1-.3-.641c-.033-.118-.1-.41-.2-.876v-.125a.988.988 0 0 0-.035-.214 1.028 1.028 0 0 1-.037-.216 6.583 6.583 0 0 1-.013-.482v-2c.01-.048.045-.494.1-1.339-.015-.261-.03-.475-.043-.643s-.022-.279-.025-.339 0-.065 0-.017a.475.475 0 0 1-.027-.179c-.047-.548.07-.834.341-.858a.928.928 0 0 1 .442.143.612.612 0 0 1 .135.357 1.286 1.286 0 0 1-.04.41 1.911 1.911 0 0 0-.06.376.673.673 0 0 0 .1.3 2.48 2.48 0 0 0-.1.749v.535c-.008.168-.03.412-.066.733a.229.229 0 0 1 .066.161 5.121 5.121 0 0 0 0 .607c.038.454.07.769.1.947a1.319 1.319 0 0 0 0 .3 3.331 3.331 0 0 0 .146.733c.118.334.248.5.385.482a.461.461 0 0 1 .163-.16c.022 0 .071.068.155.2a1.054 1.054 0 0 1 .12.241" fill="#fff"/><path data-name="Tracé 126" d="M159.277 103.862a6.661 6.661 0 0 0-.083.695 2.75 2.75 0 0 1-.869 1.835 4.227 4.227 0 0 0-.849.588 1 1 0 0 0-.3.088.6.6 0 0 1-.367.053 3.246 3.246 0 0 1-1.751.394 1.191 1.191 0 0 0-.351.16 5.2 5.2 0 0 1-1.068-.106.736.736 0 0 1-.151.017 1.276 1.276 0 0 1-.6-.2 5.1 5.1 0 0 0-.568-.321 7.935 7.935 0 0 1-.616-.663 4.982 4.982 0 0 1-.334-.838 4.279 4.279 0 0 0-.083-.877.2.2 0 0 0 .05-.141v-.125a.637.637 0 0 1-.017-.108 1.783 1.783 0 0 1 .083-.455 1.782 1.782 0 0 0 .083-.457.694.694 0 0 0-.066-.3 1.794 1.794 0 0 1 .558-.992 2.418 2.418 0 0 0 .608-.884.984.984 0 0 1 .616-.341 1.083 1.083 0 0 1 .186.018c.033.156.09.371.166.643a.128.128 0 0 0 .066.02.367.367 0 0 0 .218-.126c.322-.047.807-.113 1.452-.2a.231.231 0 0 0 .151.053c.076-.017.194-.035.349-.053a.315.315 0 0 1 .234.106l1.836.376a5.32 5.32 0 0 1 .9.711 5.849 5.849 0 0 0 .415.676v.214a1.521 1.521 0 0 0-.018.2.7.7 0 0 0 .12.339m-.919 1.025v-.071a.767.767 0 0 1 0-.214v-.214a2.258 2.258 0 0 0-.015-.268.517.517 0 0 0 .065-.249 4.793 4.793 0 0 1-.133-.575 2.1 2.1 0 0 0-.683-.749 2.651 2.651 0 0 1-.419-.178.987.987 0 0 0-.449-.09c-.088.025-.13.037-.116.037a.764.764 0 0 1-.259-.071.774.774 0 0 0-.259-.071h-1.236a2.455 2.455 0 0 0-.783.106 2.777 2.777 0 0 0-.4.161l-.066-.017a5.217 5.217 0 0 0-.568.16 4.159 4.159 0 0 1-.4.357 5.3 5.3 0 0 0-.469 1.537c0 .071.013.226.035.464a2.028 2.028 0 0 1 .017.447 4.863 4.863 0 0 0 .45.713 1.556 1.556 0 0 0 .567.361 2.848 2.848 0 0 1 .585.266l.068-.037q.316 0 1.1-.061t.513-.08a.829.829 0 0 0 .5-.214 2.5 2.5 0 0 0 .733-.145 3.379 3.379 0 0 1 .552-.231 4.628 4.628 0 0 0 .585-.465 2.063 2.063 0 0 0 .482-.607" fill="#fff"/><path data-name="Tracé 127" d="m165.981 108.62-.384-.106c-.076-.037-.138-.161-.184-.377a1.115 1.115 0 0 0-.284-.607 8.688 8.688 0 0 1-.231-.445 1.309 1.309 0 0 0-.336-.59 1.458 1.458 0 0 1-.334-.518q-.164-.214-1.065-1.517-.2-.287-.651-1.037-.184-.322-.467-.715a.578.578 0 0 0-.218-.312.517.517 0 0 1-.2-.349.921.921 0 0 1-.15-.161l-.032-.071a.785.785 0 0 0-.251-.321.393.393 0 0 0-.367.178 1.047 1.047 0 0 1-.1.09 6.826 6.826 0 0 0-.3 2.448v1.732a3.014 3.014 0 0 1 .066.663 4.435 4.435 0 0 1-.05.678c0 .274-.032.435-.1.482a.543.543 0 0 0-.081.269 1.533 1.533 0 0 1 .032.2 1.245 1.245 0 0 1-.3.213.422.422 0 0 0-.136.09 3.491 3.491 0 0 1-.6-.071.225.225 0 0 1-.017-.088v-.037l-.015-.143q-.035-.214-.083-.982a1.118 1.118 0 0 0-.018-.321.411.411 0 0 1 0-.233q-.017-1.521 0-1.858a3.641 3.641 0 0 1-.065-.876c.017-.189.04-.518.065-.984a.578.578 0 0 1-.065-.447 3.437 3.437 0 0 0 0-.678v.018a3.646 3.646 0 0 0 .316-.517 1.275 1.275 0 0 0 .169.017.641.641 0 0 1 .05.071.332.332 0 0 0 .352.179 1.231 1.231 0 0 0 .268-.608.851.851 0 0 1 .286-.412l.151-.106a.561.561 0 0 0 .219-.178l.066-.09a.1.1 0 0 1 .116-.053 3.163 3.163 0 0 1 1.359 1.59 2.651 2.651 0 0 1 .45.625c.279.489.723 1.2 1.324 2.144a1.911 1.911 0 0 0 .269.339 1.619 1.619 0 0 1 .284.394 3.617 3.617 0 0 0 .369.552 1.357 1.357 0 0 0 .269.43.432.432 0 0 1 .083.143 3.325 3.325 0 0 1 .67.982 1.961 1.961 0 0 1 .42.839 2.271 2.271 0 0 1-.568.447" fill="#fff"/><path data-name="Tracé 128" d="M179.649 104.744c.012.143.017.239.017.286a2.9 2.9 0 0 1-1.073 1.974 3.019 3.019 0 0 1-2 .974 3.7 3.7 0 0 0-.45.16h-.133a3.826 3.826 0 0 1-.9.108.77.77 0 0 1-.216.106l-.032.143a.312.312 0 0 0 .032.125 2.476 2.476 0 0 0-.018.336c0 .191.013.422.035.695.022.095.061.226.116.392a3.068 3.068 0 0 0 .083.6c.068.3.106.5.118.6-.1.357-.213.535-.334.535q-.718-.037-.784-.43-.032-.5-.083-.982l.05-.213-.033-.071a2.843 2.843 0 0 0-.133-.966l-.068-.071a.538.538 0 0 1-.017-.126.2.2 0 0 1 .052-.143c-.035-.095-.164-.188-.392-.276s-.342-.206-.342-.349a.383.383 0 0 1 .332-.41l.051-.2c-.023-.12-.045-.3-.066-.555a.463.463 0 0 0-.033-.266 18.7 18.7 0 0 1-.133-2v-.756a2.58 2.58 0 0 0 .133-.663 2.182 2.182 0 0 1 .334-1.125 3.52 3.52 0 0 0 .169-.464 3.583 3.583 0 0 1 .8-.966c.068-.025.341-.155.821-.394a2.067 2.067 0 0 1 .94-.251c.111.025.274.073.487.145.121.06.309.136.555.233.111.095.267.233.469.409q.1.11.871 1.127c.047.071.108.186.186.339a5.713 5.713 0 0 0 .487 1.394c.022.2.073.5.15.876Zm-1.436 1.393a3.738 3.738 0 0 0 .467-.786 1.122 1.122 0 0 0 .168-.7 6.837 6.837 0 0 1-.166-1.088c-.2-.5-.311-.786-.334-.857a1.377 1.377 0 0 0-.533-.68 3.131 3.131 0 0 0-1.2-.982 1.529 1.529 0 0 0-.949.2q-.436.055-1.085.964a2.059 2.059 0 0 1-.218.555l-.065.053.013.09c-.01.071-.042.2-.09.392-.025.073-.06.2-.11.394a4.416 4.416 0 0 0 0 .768.731.731 0 0 0-.066.3 2.009 2.009 0 0 1 .066.251.265.265 0 0 1-.042.115.325.325 0 0 0-.042.151l.023.233a.418.418 0 0 1 .06.286v.3l.076.608a2.967 2.967 0 0 0 .076-.661l.033-.216a1.5 1.5 0 0 1-.051-.374l.051-.233a.452.452 0 0 1 .364-.16l.234.071a4.262 4.262 0 0 0 .183.874 2.28 2.28 0 0 0-.081.661v.7l.166.035a8.05 8.05 0 0 0 1.59-.392 1.229 1.229 0 0 0 .641-.269 3.211 3.211 0 0 1 .535-.359Z" fill="#fff"/><path data-name="Tracé 129" d="M186.891 103.862a6.311 6.311 0 0 0-.085.695 2.739 2.739 0 0 1-.866 1.835 4.181 4.181 0 0 0-.851.588 1 1 0 0 0-.3.088.6.6 0 0 1-.367.053 3.254 3.254 0 0 1-1.751.394 1.173 1.173 0 0 0-.352.16 5.2 5.2 0 0 1-1.068-.106.721.721 0 0 1-.15.017 1.281 1.281 0 0 1-.6-.2 4.99 4.99 0 0 0-.567-.321 7.936 7.936 0 0 1-.616-.663 5.29 5.29 0 0 1-.334-.838 4.187 4.187 0 0 0-.085-.877.19.19 0 0 0 .051-.141v-.125a.636.636 0 0 1-.017-.108 1.729 1.729 0 0 1 .085-.455 1.839 1.839 0 0 0 .081-.457.694.694 0 0 0-.066-.3 1.788 1.788 0 0 1 .56-.992 2.485 2.485 0 0 0 .608-.884.971.971 0 0 1 .618-.341 1.1 1.1 0 0 1 .183.018c.032.156.09.371.168.643a.12.12 0 0 0 .066.02.365.365 0 0 0 .216-.126c.322-.047.806-.113 1.454-.2a.226.226 0 0 0 .15.053c.078-.017.193-.035.349-.053a.315.315 0 0 1 .234.106l1.834.376a5.191 5.191 0 0 1 .9.711 6.147 6.147 0 0 0 .417.676v.214a1.739 1.739 0 0 0-.015.2.667.667 0 0 0 .116.339m-.917 1.025v-.071a.659.659 0 0 1 0-.214v-.214a1.933 1.933 0 0 0-.018-.268.522.522 0 0 0 .068-.249 4.222 4.222 0 0 1-.133-.575 2.146 2.146 0 0 0-.685-.749 2.469 2.469 0 0 1-.417-.178 1 1 0 0 0-.452-.09c-.088.025-.126.037-.115.037a.78.78 0 0 1-.261-.071.751.751 0 0 0-.256-.071h-1.236a2.459 2.459 0 0 0-.784.106 2.7 2.7 0 0 0-.4.161l-.068-.017a5.376 5.376 0 0 0-.567.16 4.314 4.314 0 0 1-.4.357 5.2 5.2 0 0 0-.469 1.537c0 .071.012.226.033.464a2.137 2.137 0 0 1 .017.447 5.013 5.013 0 0 0 .45.713 1.528 1.528 0 0 0 .567.361 2.9 2.9 0 0 1 .585.266l.066-.037c.213 0 .58-.02 1.11-.061s.7-.068.508-.08a.826.826 0 0 0 .5-.214 2.509 2.509 0 0 0 .733-.145 3.444 3.444 0 0 1 .552-.231 4.333 4.333 0 0 0 .583-.465 2.079 2.079 0 0 0 .485-.607" fill="#fff"/><path data-name="Tracé 130" d="M193.096 104.744c.012.143.018.239.018.286a2.918 2.918 0 0 1-1.075 1.974 3.019 3.019 0 0 1-1.994.974 3.8 3.8 0 0 0-.452.16h-.133a3.822 3.822 0 0 1-.9.108.817.817 0 0 1-.216.106l-.035.143a.274.274 0 0 0 .035.125 2.476 2.476 0 0 0-.018.336c0 .191.012.422.033.695.023.095.061.226.118.392a2.835 2.835 0 0 0 .083.6c.068.3.1.5.118.6-.1.357-.213.535-.334.535q-.72-.037-.788-.43c-.02-.332-.05-.66-.081-.982l.05-.213-.035-.071a2.8 2.8 0 0 0-.133-.966l-.071-.066a.551.551 0 0 1-.018-.126.206.206 0 0 1 .052-.143c-.033-.095-.164-.188-.392-.276s-.341-.206-.341-.349a.381.381 0 0 1 .331-.41l.052-.2c-.022-.12-.045-.3-.066-.555a.449.449 0 0 0-.033-.266 19.865 19.865 0 0 1-.135-2v-.761a2.389 2.389 0 0 0 .135-.663 2.182 2.182 0 0 1 .334-1.125 3.294 3.294 0 0 0 .169-.464 3.563 3.563 0 0 1 .806-.966c.068-.025.341-.155.822-.394a2.067 2.067 0 0 1 .94-.251c.111.025.272.073.485.145.123.06.307.136.555.233l.469.409q.1.11.871 1.127c.045.071.108.186.184.339a5.713 5.713 0 0 0 .487 1.394c.023.2.075.5.151.876Zm-1.437 1.393a3.591 3.591 0 0 0 .469-.786 1.132 1.132 0 0 0 .169-.7 6.646 6.646 0 0 1-.166-1.088q-.3-.75-.334-.857a1.4 1.4 0 0 0-.533-.68 3.13 3.13 0 0 0-1.2-.982 1.535 1.535 0 0 0-.95.2q-.434.055-1.087.964a2 2 0 0 1-.214.555l-.066.053.015.09a6.62 6.62 0 0 1-.091.392 8.1 8.1 0 0 0-.11.394 4.786 4.786 0 0 0 0 .768.706.706 0 0 0-.066.3 1.749 1.749 0 0 1 .066.251.29.29 0 0 1-.042.115.343.343 0 0 0-.04.151l.022.233a.418.418 0 0 1 .06.286v.3l.076.608a2.965 2.965 0 0 0 .076-.661l.033-.216a1.578 1.578 0 0 1-.052-.374l.052-.233a.457.457 0 0 1 .366-.16l.236.071a4.046 4.046 0 0 0 .183.874 2.214 2.214 0 0 0-.085.661v.7l.168.035a8.06 8.06 0 0 0 1.592-.392 1.215 1.215 0 0 0 .638-.269 3.211 3.211 0 0 1 .535-.359Z" fill="#fff"/><path data-name="Tracé 131" d="M199.808 103.193a3.153 3.153 0 0 1-.042.474 8.12 8.12 0 0 0-.075.8 4.994 4.994 0 0 1-.253.66.754.754 0 0 0-.081.339 1.674 1.674 0 0 1-.405.573 4.234 4.234 0 0 1-1.465 1.358c-.078.047-.216.136-.417.268a3.656 3.656 0 0 1-1.7.517.4.4 0 0 1-.216.055 1.7 1.7 0 0 1-1.519-1.072c-.033-.06-.095-.166-.183-.321l-.018-.037a4.268 4.268 0 0 1-.384-.949 12.852 12.852 0 0 1-.184-.607.937.937 0 0 0-.05-.339v-.535c.013-.108.03-.274.05-.5a4.316 4.316 0 0 1 .052-.429 1.168 1.168 0 0 0 .015-.429 3.36 3.36 0 0 1 .053-.661q.047-.571.449-.661a.618.618 0 0 1 .686.59 6.046 6.046 0 0 1-.035.749.733.733 0 0 1-.289.251 1.665 1.665 0 0 0-.12.713l-.048.484a.431.431 0 0 1 .091.286v.3a3.794 3.794 0 0 0 .783 1.878 2.075 2.075 0 0 0 .482.339 1.767 1.767 0 0 0 .366.037 3.5 3.5 0 0 0 2.27-.939 3.8 3.8 0 0 0 1.354-2.134 4.526 4.526 0 0 1 .066-.538 1.812 1.812 0 0 0 .017-.66c-.065-.465-.155-.71-.266-.733a.616.616 0 0 1-.415-.141c-.091-.023-.166-.12-.228-.287a.763.763 0 0 0-.141-.286 2.4 2.4 0 0 1 .116-.3 1.1 1.1 0 0 1 .585-.357c.279-.047.44.02.483.2a1.99 1.99 0 0 1 .334.553c.135.3.223.489.269.572.02.357.027.666.017.929" fill="#fff"/><path data-name="Tracé 132" d="m201.959 108.175-.05.09a.539.539 0 0 1-.435.3h-.116a.283.283 0 0 1-.251-.106l-.05-.053a.355.355 0 0 0-.2-.055 3.83 3.83 0 0 0-.1-.731 3.06 3.06 0 0 0-.133-1.035c-.156-.56-.244-.889-.266-.984s-.073-.327-.151-.7a1.538 1.538 0 0 0 0-.555 2.785 2.785 0 0 1-.05-.588 3.766 3.766 0 0 1-.133-.929 11.839 11.839 0 0 1-.068-1.484 7.567 7.567 0 0 1 .068-.8c-.012-.475-.012-.749 0-.821a1.054 1.054 0 0 1-.018-.429 1.81 1.81 0 0 0 .035-.455 5.953 5.953 0 0 1 .033-.778 5.228 5.228 0 0 1 .05-.573c.022-.236.033-.42.033-.553a3.525 3.525 0 0 1 .033-.678 2.207 2.207 0 0 0 .017-.517 1.4 1.4 0 0 0 .017-.5 2.715 2.715 0 0 1 .284-.625.481.481 0 0 1 .249-.071.772.772 0 0 1 .317.09.87.87 0 0 1 .05.286 1.16 1.16 0 0 1-.083.412c-.013.155-.05.489-.115 1a7.956 7.956 0 0 0-.085 1.019c-.012.168-.047.7-.1 1.59a3.557 3.557 0 0 1-.017.894 3.93 3.93 0 0 0 0 .892 8.056 8.056 0 0 1 .066.982c.01.1.053.543.135 1.339.032.239.076.668.131 1.288a3.021 3.021 0 0 0 .266.892 1.337 1.337 0 0 0 .118.518c0-.037.057.3.166 1a1.02 1.02 0 0 1 .2.627c.045.106.116.261.216.462a.488.488 0 0 1-.065.341" fill="#fff"/><path data-name="Tracé 133" d="M208.281 108.299a1.936 1.936 0 0 1-.435.3.831.831 0 0 1-.749-.339.371.371 0 0 1-.033-.163.942.942 0 0 1 .042-.2.485.485 0 0 0 .025-.223 5.891 5.891 0 0 0-.133-.41 5.841 5.841 0 0 0-.216-1.143 2.183 2.183 0 0 0-.151-.661 1.906 1.906 0 0 0-.116-.322.74.74 0 0 1-.085-.321 2.519 2.519 0 0 0-.384-.553l-.55-.359a4.167 4.167 0 0 0-.7-.088.352.352 0 0 0-.284.071 1.3 1.3 0 0 1-.3.143c-.123.12-.3.309-.535.572a4.276 4.276 0 0 0-.467.482 5.66 5.66 0 0 0-.3.625l-.135.429c-.01.073-.028.256-.052.553a.866.866 0 0 0 .118.518 1.79 1.79 0 0 0 1.166.733 2.7 2.7 0 0 0 1.371-.071.662.662 0 0 0 .384-.429.7.7 0 0 1 .5-.321 1.2 1.2 0 0 1 .6.447.793.793 0 0 0-.066.3c-.056.095-.148.244-.282.447a6.976 6.976 0 0 1-.95.268 3.631 3.631 0 0 0-.518.2c-.155.012-.364.03-.618.055-.023.01-.08-.007-.168-.055q-.3-.052-.882-.143a6.724 6.724 0 0 1-.92-.553 5.036 5.036 0 0 1-.5-1.017 2.658 2.658 0 0 1 .065-1.074 2.362 2.362 0 0 1 .169-.518l.164-.286a1.149 1.149 0 0 1 .184-.427c.08-.131.161-.269.249-.412a.31.31 0 0 0 .184-.161l.05-.088a.742.742 0 0 1 .284-.251.482.482 0 0 1 .151-.16l.048-.037a.3.3 0 0 0 .116-.143c.113-.06.274-.156.483-.287a.129.129 0 0 0 .169.018.818.818 0 0 0 .3-.141 6.96 6.96 0 0 1 1.234.106.968.968 0 0 0 .2.071 9.052 9.052 0 0 0-.249-.749 2.234 2.234 0 0 0-.851-1.125.605.605 0 0 0-.52-.126l-.434.09c-.145.1-.291.2-.44.3a.835.835 0 0 0-.311.374 6.075 6.075 0 0 1-.3.2l-.253.321c-.078.025-.176-.035-.3-.179a.786.786 0 0 1 .168-.786 2.877 2.877 0 0 1 .718-.641 1.545 1.545 0 0 1 .542-.261 3.4 3.4 0 0 0 .508-.186 2.093 2.093 0 0 1 1.5.59 6.235 6.235 0 0 1 .5.768q.167.394.585 1.2a2.561 2.561 0 0 0 .166.66c.023.083.037.161.05.233a2.257 2.257 0 0 0 .3.7c0 .251.012.346.032.286a1.566 1.566 0 0 0 .133.321.739.739 0 0 1 .1.394c.043.238.128.583.251 1.035a2.806 2.806 0 0 0 .184.733 1.145 1.145 0 0 1 .033.322.945.945 0 0 0 .166.17.413.413 0 0 1 .15.312.362.362 0 0 0-.166.071" fill="#fff"/><path data-name="Tracé 134" d="M209.632 97.383a.262.262 0 0 1 .048.16 1.4 1.4 0 0 1-.115.482.066.066 0 0 1-.066.055.315.315 0 0 1-.193-.035.531.531 0 0 0-.174-.055 1.654 1.654 0 0 1-.417.179 1.365 1.365 0 0 1-.583-.2c0 .048-.012-.053-.033-.3a.352.352 0 0 1 .033-.16.777.777 0 0 1 .241-.455c.151-.163.238-.258.259-.287a.117.117 0 0 1 .1-.045.625.625 0 0 1 .585.268 3.982 3.982 0 0 0 .316.394m.9 10.022a.418.418 0 0 1-.048.241 1.932 1.932 0 0 0-.118.278 2.231 2.231 0 0 1-.568.625c-.189.023-.379-.09-.567-.341a1.844 1.844 0 0 1-.3-.641q-.047-.177-.2-.876v-.125a.988.988 0 0 0-.035-.214 1.119 1.119 0 0 1-.035-.216 7.74 7.74 0 0 1-.015-.482v-2c.013-.048.047-.494.1-1.339q-.025-.391-.045-.643c-.01-.166-.02-.279-.023-.339s-.007-.065-.007-.017a.553.553 0 0 1-.027-.179q-.065-.823.341-.858a.928.928 0 0 1 .444.143.623.623 0 0 1 .135.357 1.337 1.337 0 0 1-.04.41 1.911 1.911 0 0 0-.06.376.673.673 0 0 0 .1.3 2.429 2.429 0 0 0-.1.749v.535c-.008.168-.03.412-.066.733a.237.237 0 0 1 .066.161 5.121 5.121 0 0 0 0 .607c.038.454.07.769.1.947a1.318 1.318 0 0 0 0 .3 3.331 3.331 0 0 0 .146.733c.116.334.246.5.385.482a.461.461 0 0 1 .163-.16c.023 0 .073.068.155.2a.913.913 0 0 1 .12.241" fill="#fff"/><path data-name="Tracé 135" d="M210.082 101.439h.033c.023 0 .05-.018.085-.053a.338.338 0 0 0-.068-.286l-.05-.071-.083-.608c-.012-.071.11-.173.369-.3q.065.017.249.339v.055c.09.166.2.415.349.751 0 .035.032.243.085.623a.663.663 0 0 1 0 .214 1.818 1.818 0 0 0 .334.59l.05-.018c.056-.023.088-.083.1-.178a3.07 3.07 0 0 1 .786-1.7 1.417 1.417 0 0 1 .7-.535.338.338 0 0 1 .214 0h.085a.985.985 0 0 1 .535 0 1.891 1.891 0 0 0 .55.07c.166.06.407.155.718.284a.212.212 0 0 1 .118.055l.032.035c.08 0 .234.118.469.356a.559.559 0 0 0 .3.266 3.254 3.254 0 0 1 .384.8 2.4 2.4 0 0 0 .151.409c0 .106-.09.188-.268.248a.638.638 0 0 1-.382-.08 1.2 1.2 0 0 0-.37-.118l.017-.017q.017-.107-.16-.349a3.765 3.765 0 0 0-.66-.633 2.29 2.29 0 0 0-.6-.341 6.684 6.684 0 0 0-.8.055q-.618.125-1.168 1.25a5.52 5.52 0 0 0-.118 1 1.417 1.417 0 0 0 .052.412 1.291 1.291 0 0 0-.052.41c0 .095.007.209.018.339a.172.172 0 0 1 .065.143v.071a1.22 1.22 0 0 0 .035.268c.01.025 0 .053-.035.09l-.032.053a2.466 2.466 0 0 0 .133.786c.023.239.033.6.033 1.09a2.461 2.461 0 0 0 .234.7 1.309 1.309 0 0 1-.251.447l-.083.035a1.423 1.423 0 0 1-.432.377l-.1.017a2.856 2.856 0 0 1-.485-.357 5.743 5.743 0 0 1 .083-1.054 1.725 1.725 0 0 0-.032-.572.928.928 0 0 1 0-.5.158.158 0 0 0-.052-.179l-.032-.037q0 .02-.135-1.052a4.622 4.622 0 0 1-.035-.553 30.204 30.204 0 0 0-.3-1.539 9.322 9.322 0 0 0-.3-.713q-.085-.269-.286-.786" fill="#fff"/><path data-name="Tracé 136" d="m223.8 106.727-.017.071a.227.227 0 0 1 .017.09.408.408 0 0 1-.066.213l-.035.055c-.055.095-.111.2-.165.3a.619.619 0 0 1-.334.108 1.136 1.136 0 0 1-.319-.071 7.277 7.277 0 0 0-.967.429 3.091 3.091 0 0 0-.751.249.214.214 0 0 0-.135-.053.7.7 0 0 0-.208.063.368.368 0 0 1-.259.025 2.091 2.091 0 0 1-.784.108 1.31 1.31 0 0 1-.258-.035 1.374 1.374 0 0 0-.259-.037 4.44 4.44 0 0 1-.45-.143 2.874 2.874 0 0 1-.653-.125.909.909 0 0 1-.374-.214 4.841 4.841 0 0 0-.575-.392h-.018c-.043 0-.083-.053-.116-.161a3.541 3.541 0 0 1-.917-1.662l-.05-1.268a4.163 4.163 0 0 1 .135-.806 4.021 4.021 0 0 0 .115-.427c.156-.284.39-.661.7-1.125q.4-.359 1.268-1.019a1.508 1.508 0 0 1 .61-.412 1.959 1.959 0 0 1 .726-.213h.116c.033 0 .066-.028.1-.081a3.683 3.683 0 0 1 .565-.08.667.667 0 0 1 .351.09.834.834 0 0 1 .42.258 1.336 1.336 0 0 0 .347.278c.081.322.158.489.236.5l.032.018a.148.148 0 0 1 .035.108.26.26 0 0 1-.018.09v.071c.037.07.08.178.135.319a1.725 1.725 0 0 1 .017.233 2.073 2.073 0 0 1-.083.484 4.243 4.243 0 0 1-.384.678 3.449 3.449 0 0 1-.6.5 3.846 3.846 0 0 1-.751.41 22.65 22.65 0 0 0-.836.43 4.549 4.549 0 0 1-1.1.339l-.316.07a.277.277 0 0 1-.133.037.8.8 0 0 1-.143-.017.735.735 0 0 0-.141-.02h-.035a.329.329 0 0 1-.2.073.624.624 0 0 1-.151-.027.612.612 0 0 0-.151-.027.084.084 0 0 0-.05.088c.035.168.1.412.2.733a2.2 2.2 0 0 0 1.286 1.215 1.65 1.65 0 0 0 .65.233 4.384 4.384 0 0 0 .751.143 1.088 1.088 0 0 0 .269-.035.1.1 0 0 1 .1-.055.5.5 0 0 1 .1.018.454.454 0 0 0 .1.018 1.655 1.655 0 0 0 .362-.063 1.607 1.607 0 0 1 .357-.063.631.631 0 0 0 .5-.16 1.861 1.861 0 0 0 .784-.374 1.639 1.639 0 0 0 .415-.663.67.67 0 0 1 .253-.053.834.834 0 0 1 .384.106l.385.518a.513.513 0 0 1-.018.108m-2.771-5.128q-.035-.1-.2-.125c-.111-.012-.169-.095-.169-.251 0-.081-.081-.123-.249-.123a1.252 1.252 0 0 0-.266.043 1.267 1.267 0 0 1-.266.045.761.761 0 0 0-.452.143c-.211.12-.523.268-.934.447a5.878 5.878 0 0 0-.952.892.539.539 0 0 0-.216.2c-.076.155-.156.314-.233.474a1.086 1.086 0 0 0-.12.474 3.05 3.05 0 0 1 .253-.035.435.435 0 0 1 .218.09.419.419 0 0 0 .218.09h.2a.086.086 0 0 1 .066-.037c.022 0 .043.015.066.045a.09.09 0 0 0 .065.045.362.362 0 0 0 .184-.081.371.371 0 0 1 .184-.08.2.2 0 0 1 .116.035c.311-.118.694-.286 1.151-.5q.715-.481.766-.518a2.45 2.45 0 0 0 .6-.731c-.023-.489-.033-.666-.033-.537" fill="#fff"/></g></svg>